<?xml version="1.0" encoding="UTF-8" standalone="no"?>
<!-- Generator: Adobe Illustrator 19.2.0, SVG Export Plug-In . SVG Version: 6.00 Build 0)  -->

<svg
   xmlns:dc="http://purl.org/dc/elements/1.1/"
   xmlns:cc="http://creativecommons.org/ns#"
   xmlns:rdf="http://www.w3.org/1999/02/22-rdf-syntax-ns#"
   xmlns:svg="http://www.w3.org/2000/svg"
   xmlns="http://www.w3.org/2000/svg"
   xmlns:sodipodi="http://sodipodi.sourceforge.net/DTD/sodipodi-0.dtd"
   xmlns:inkscape="http://www.inkscape.org/namespaces/inkscape"
   version="1.1"
   id="Layer_1"
   x="0px"
   y="0px"
   viewBox="0 0 250 250"
   style="enable-background:new 0 0 250 250;"
   xml:space="preserve"
   inkscape:version="0.91 r13725"
   sodipodi:docname="hiw-book-white.svg"><metadata
     id="metadata17"><rdf:RDF><cc:Work
         rdf:about=""><dc:format>image/svg+xml</dc:format><dc:type
           rdf:resource="http://purl.org/dc/dcmitype/StillImage" /><dc:title></dc:title></cc:Work></rdf:RDF></metadata><defs
     id="defs15" /><sodipodi:namedview
     pagecolor="#ffffff"
     bordercolor="#666666"
     borderopacity="1"
     objecttolerance="10"
     gridtolerance="10"
     guidetolerance="10"
     inkscape:pageopacity="0"
     inkscape:pageshadow="2"
     inkscape:window-width="1278"
     inkscape:window-height="1008"
     id="namedview13"
     showgrid="false"
     inkscape:zoom="0.6675088"
     inkscape:cx="135.2842"
     inkscape:cy="27.27869"
     inkscape:window-x="1273"
     inkscape:window-y="0"
     inkscape:window-maximized="0"
     inkscape:current-layer="Layer_1" /><style
     type="text/css"
     id="style3">
	.st0{fill:#456DB5;}
	.st1{fill:#466DB5;}
</style><path
     class="st0"
     d="M240.8,25.2h-59.2v-9.9c0-3.3-2.7-6.1-6.1-6.1c-3.3,0-6.1,2.7-6.1,6.1v9.9l-8.3,0h-32.1v-9.9  c0-3.3-2.7-6.1-6.1-6.1c-3.3,0-6.1,2.7-6.1,6.1v9.9H87.4l-10.6,0h-0.2v-9.9c0-3.3-2.7-6.1-6.1-6.1c-3.3,0-6.1,2.7-6.1,6.1v9.9H9.2  c-4.7,0-8.5,3.8-8.5,8.5v165.7c0,4.7,3.8,8.6,8.6,8.6H71c8.7,21.6,29.8,36.9,54.4,36.9c24.6,0,45.8-15.3,54.4-36.9h61  c4.7,0,8.6-3.8,8.6-8.6V33.8C249.4,29.1,245.5,25.2,240.8,25.2z M125.4,232.6c-18,0-33.6-10.3-41.3-25.3c-0.3-0.5-0.5-1.1-0.8-1.6  c-0.2-0.3-0.3-0.7-0.5-1c-0.3-0.8-0.7-1.6-1-2.4c-0.1-0.2-0.1-0.3-0.2-0.5c-0.3-0.8-0.5-1.6-0.8-2.4c-0.1-0.3-0.2-0.5-0.2-0.8  c-0.2-0.8-0.4-1.7-0.6-2.5c-0.7-3.2-1.1-6.5-1.1-9.9c0-25.6,20.8-46.4,46.4-46.4c25.6,0,46.4,20.8,46.4,46.4c0,3.4-0.4,6.7-1.1,9.9  c-0.2,0.8-0.4,1.7-0.6,2.5c-0.1,0.3-0.1,0.5-0.2,0.8c-0.2,0.8-0.5,1.6-0.8,2.4c-0.1,0.2-0.1,0.4-0.2,0.5c-0.3,0.8-0.6,1.6-1,2.3  c-0.1,0.3-0.3,0.7-0.5,1c-0.2,0.5-0.5,1.1-0.8,1.6C159,222.3,143.4,232.6,125.4,232.6z M237.2,195.9h-54c0.5-3.1,0.8-6.3,0.8-9.6  c0-32.3-26.3-58.6-58.6-58.6c-32.3,0-58.6,26.3-58.6,58.6c0,3.3,0.3,6.5,0.8,9.6H12.8V37.4h51.6v7.8c0,3.3,2.7,6.1,6.1,6.1  c3.3,0,6.1-2.7,6.1-6.1v-7.8h8l10.6,0h21.8v7.8c0,3.3,2.7,6.1,6.1,6.1c3.3,0,6.1-2.7,6.1-6.1v-7.8h24.7l11.8,0h3.8v7.8  c0,3.3,2.7,6.1,6.1,6.1c3.3,0,6.1-2.7,6.1-6.1v-7.8h55.6V195.9z"
     id="path5"
     style="fill:#ffffff;fill-opacity:1" /><path
     class="st0"
     d="M154,196.3L131,183.1V149c0-3.3-2.7-6-6-6s-6,2.7-6,6v37.3c0,0.6,0.1,1.2,0.3,1.8c0,0.1,0.1,0.3,0.1,0.4  c0,0.1,0,0.1,0.1,0.2c0.5,1.3,1.3,2.4,2.6,3.2l25.8,14.9c2.9,1.7,6.6,0.7,8.2-2.2C157.8,201.7,156.8,198,154,196.3z"
     id="path7"
     style="fill:#ffffff;fill-opacity:1" /><g
     id="g9"
     style="fill:#ffffff;fill-opacity:1"><rect
       x="7.5"
       y="72.2"
       class="st1"
       width="229.7"
       height="10.5"
       id="rect11"
       style="fill:#ffffff;fill-opacity:1" /></g></svg>