<?xml version="1.0" encoding="iso-8859-1"?>
<!-- Generator: Adobe Illustrator 19.0.0, SVG Export Plug-In . SVG Version: 6.00 Build 0)  -->
<svg version="1.1" id="Layer_1" xmlns="http://www.w3.org/2000/svg" xmlns:xlink="http://www.w3.org/1999/xlink" x="0px" y="0px"
	 viewBox="0 0 512 512" style="enable-background:new 0 0 512 512;" xml:space="preserve">
<g>
	<path style="fill:#EFEFEF;" d="M132.129,132.129C132.129,200.53,187.574,256,256,256c68.401,0,123.871-55.47,123.871-123.871
		H132.129z"/>
	<rect x="132.129" y="46.259" style="fill:#EFEFEF;" width="247.731" height="85.883"/>
	<rect x="132.129" y="379.878" style="fill:#EFEFEF;" width="247.731" height="85.885"/>
	<path style="fill:#EFEFEF;" d="M256,256c-68.401,0-123.871,55.47-123.871,123.871h247.747C379.876,311.47,324.426,256,256,256z"/>
	<path style="fill:#EFEFEF;" d="M281.533,258.632c-8.22-1.746-16.783-2.637-25.533-2.637c8.75,0,17.313-0.893,25.533-2.642
		c-1.221,0.264-2.115,1.349-2.115,2.642C279.416,257.283,280.312,258.376,281.533,258.632z"/>
	<path style="fill:#EFEFEF;" d="M230.467,258.632c8.22-1.746,16.776-2.637,25.533-2.637c-8.758,0-17.313-0.893-25.533-2.642
		c1.221,0.264,2.109,1.349,2.109,2.642C232.576,257.283,231.688,258.376,230.467,258.632z"/>
</g>
<path style="fill:#D65A38;" d="M359.619,133.184c-0.074,7.982-1.042,15.788-2.911,23.242H230.083v-23.242
	c3.446-3.372,8.417-6.851,15.104-9.971c13.484-6.426,33.9-11.5,62.646-11.5C336.425,111.713,359.619,121.329,359.619,133.184z"/>
<g>
	<path style="fill:#F67656;" d="M307.832,153.574c-17.044-1.247-37.491-7.109-51.832-21.45c-28.588-28.621-74.988-28.621-103.626,0
		c0,57.147,46.497,103.616,103.626,103.616c56.806,0,103.099-45.916,103.619-102.559
		C358.482,145.129,338.324,155.845,307.832,153.574z"/>
	<path style="fill:#F67656;" d="M256,385.582c-44.27,0-80.172,35.899-80.172,80.172h160.346
		C336.174,421.484,300.283,385.582,256,385.582z"/>
	<path style="fill:#F67656;" d="M260.388,251.284c0,2.504-2.028,4.521-4.536,4.521c-2.491,0-4.526-2.017-4.526-4.521
		c0-2.511,2.033-4.536,4.526-4.536C258.358,246.746,260.388,248.771,260.388,251.284z"/>
	<circle style="fill:#F67656;" cx="238.848" cy="311.834" r="6.044"/>
	<path style="fill:#F67656;" d="M276.634,295.201c0,5.844-4.726,10.588-10.575,10.588c-5.85,0-10.573-4.744-10.573-10.588
		c0-5.832,4.723-10.575,10.573-10.575C271.908,284.626,276.634,289.367,276.634,295.201z"/>
	<path style="fill:#F67656;" d="M241.874,354.271c0,1.672-1.349,3.031-3.016,3.031c-1.672,0-3.026-1.357-3.026-3.031
		c0-1.669,1.354-3.003,3.026-3.003C240.525,351.268,241.874,352.599,241.874,354.271z"/>
	<path style="fill:#F67656;" d="M285.793,331.469c0,3.343-2.711,6.034-6.042,6.034c-3.338,0-6.042-2.693-6.042-6.034
		s2.706-6.052,6.042-6.052C283.082,325.417,285.793,328.131,285.793,331.469z"/>
</g>
<g>
	<path style="fill:#3F4A5A;" d="M457.5,23.124c0-5.921-2.258-11.837-6.774-16.351C446.213,2.258,440.292,0,434.376,0H77.624
		c-5.916,0-11.837,2.258-16.353,6.774C56.758,11.287,54.5,17.203,54.5,23.124l0,0c0,5.916,2.258,11.83,6.771,16.346
		c4.516,4.516,10.437,6.774,16.353,6.774h356.749c5.919,0,11.837-2.258,16.351-6.774C455.242,34.954,457.5,29.041,457.5,23.124
		L457.5,23.124z"/>
	<path style="fill:#3F4A5A;" d="M457.5,488.875c0-5.919-2.258-11.83-6.774-16.346c-4.513-4.518-10.432-6.774-16.351-6.774H77.624
		c-5.916,0-11.837,2.258-16.353,6.774c-4.513,4.516-6.771,10.427-6.771,16.346l0,0c0,5.921,2.258,11.837,6.771,16.351
		C65.787,509.745,71.708,512,77.624,512h356.749c5.919,0,11.837-2.258,16.351-6.774C455.242,500.713,457.5,494.794,457.5,488.875
		L457.5,488.875z"/>
	<rect x="95.841" y="46.259" style="fill:#3F4A5A;" width="18.074" height="419.507"/>
	<rect x="398.08" y="46.259" style="fill:#3F4A5A;" width="18.074" height="419.507"/>
</g>
<g>
</g>
<g>
</g>
<g>
</g>
<g>
</g>
<g>
</g>
<g>
</g>
<g>
</g>
<g>
</g>
<g>
</g>
<g>
</g>
<g>
</g>
<g>
</g>
<g>
</g>
<g>
</g>
<g>
</g>
</svg>
