<?xml version="1.0" encoding="UTF-8" standalone="no"?>
<svg
   xmlns:dc="http://purl.org/dc/elements/1.1/"
   xmlns:cc="http://creativecommons.org/ns#"
   xmlns:rdf="http://www.w3.org/1999/02/22-rdf-syntax-ns#"
   xmlns:svg="http://www.w3.org/2000/svg"
   xmlns="http://www.w3.org/2000/svg"
   xml:space="preserve"
   style="enable-background:new 0 0 250 250;"
   viewBox="0 0 250 250"
   y="0px"
   x="0px"
   id="Layer_1"
   version="1.1"><metadata
     id="metadata33"><rdf:RDF><cc:Work
         rdf:about=""><dc:format>image/svg+xml</dc:format><dc:type
           rdf:resource="http://purl.org/dc/dcmitype/StillImage" /><dc:title></dc:title></cc:Work></rdf:RDF></metadata><defs
     id="defs31" /><style
     id="style3"
     type="text/css">
	.st0{fill:#466DB5;}
	.st1{fill:#456DB5;}
</style><g
     style="fill:#ffffff;fill-opacity:1"
     id="g5"><path
       style="fill:#ffffff;fill-opacity:1"
       id="path7"
       d="M187.7,122.2c-19.2,0-34.8-15.6-34.8-34.8s15.6-34.8,34.8-34.8s34.8,15.6,34.8,34.8S206.9,122.2,187.7,122.2z    M187.7,64.2c-12.8,0-23.2,10.4-23.2,23.2s10.4,23.2,23.2,23.2c12.8,0,23.2-10.4,23.2-23.2S200.5,64.2,187.7,64.2z"
       class="st0" /></g><g
     style="fill:#ffffff;fill-opacity:1"
     id="g9"><path
       style="fill:#ffffff;fill-opacity:1"
       id="path11"
       d="M60.3,122.2c-19.2,0-34.8-15.6-34.8-34.8s15.6-34.8,34.8-34.8s34.8,15.6,34.8,34.8S79.5,122.2,60.3,122.2z    M60.3,64.2c-12.8,0-23.2,10.4-23.2,23.2s10.4,23.2,23.2,23.2s23.2-10.4,23.2-23.2S73.1,64.2,60.3,64.2z"
       class="st0" /></g><g
     style="fill:#ffffff;fill-opacity:1"
     id="g13"><path
       style="fill:#ffffff;fill-opacity:1"
       id="path15"
       d="M187.7,202.3c-10.3,0-20.1-2.3-27.4-6.5c-9.1-5.2-14.1-13-14.1-22.2c0-34.2,18.2-60.9,41.5-60.9   s41.5,26.8,41.5,60.9C229.2,193.4,207.7,202.3,187.7,202.3z M187.7,124.3c-16.2,0-30,22.6-30,49.4c0,11.2,15.1,17.1,30,17.1   c14.9,0,30-5.9,30-17.1C217.7,146.9,203.9,124.3,187.7,124.3z"
       class="st0" /></g><g
     style="fill:#ffffff;fill-opacity:1"
     id="g17"><path
       style="fill:#ffffff;fill-opacity:1"
       id="path19"
       d="M62,202.3c-10.3,0-20.1-2.3-27.4-6.5c-9.1-5.2-14.1-13-14.1-22.2c0-34.2,18.2-60.9,41.5-60.9   c23.3,0,41.5,26.8,41.5,60.9C103.5,193.4,82,202.3,62,202.3z M62,124.3c-16.2,0-30,22.6-30,49.4c0,11.2,15.1,17.1,30,17.1   c14.9,0,30-5.9,30-17.1C91.9,146.9,78.2,124.3,62,124.3z"
       class="st0" /></g><g
     style="fill:#ffffff;fill-opacity:1"
     id="g21"><path
       style="fill:#ffffff;fill-opacity:1"
       id="path23"
       d="M186.4,216.5c-1.1-1.6-3.3-2.1-4.9-0.9c-18.3,13.5-41.6,20.2-65.9,17.2c-12.4-1.6-22-5.6-32.3-11.4l4.6-5.2   c0.8-1,0.3-2.5-0.9-2.7l-27-4.4c-1.3-0.2-2.3,1-1.8,2.2l9.2,26.4c0.5,1.1,1.9,1.4,2.8,0.5l5.2-6c11.6,7,23.2,12.3,37.4,14.1   c30.6,3.8,53.9-3.9,74.7-23c1.3-1.2,1.5-3.1,0.5-4.5L186.4,216.5z"
       class="st1" /></g><g
     style="fill:#ffffff;fill-opacity:1"
     id="g25"><path
       style="fill:#ffffff;fill-opacity:1"
       id="path27"
       d="M60.1,33.7c1.1,1.6,3.3,2.1,4.9,0.9c18.3-13.5,41.6-20.2,65.9-17.2c12.4,1.6,22,5.6,32.3,11.4l-4.6,5.2   c-0.8,1-0.3,2.5,0.9,2.7l27,4.4c1.3,0.2,2.3-1,1.8-2.2l-9.2-26.4c-0.5-1.1-1.9-1.4-2.8-0.5l-5.2,6c-11.6-7-23.2-12.3-37.4-14.1   c-30.6-3.8-53.9,3.9-74.7,23c-1.3,1.2-1.5,3.1-0.5,4.5L60.1,33.7z"
       class="st1" /></g></svg>