<?xml version="1.0" encoding="iso-8859-1"?>
<!-- Generator: Adobe Illustrator 19.0.0, SVG Export Plug-In . SVG Version: 6.00 Build 0)  -->
<svg version="1.1" id="Layer_1" xmlns="http://www.w3.org/2000/svg" xmlns:xlink="http://www.w3.org/1999/xlink" x="0px" y="0px"
	 viewBox="0 0 512 512" style="enable-background:new 0 0 512 512;" xml:space="preserve">
<polygon style="fill:#B1C6D3;" points="164.587,443.507 193.713,358.169 318.642,354.675 349.884,443.507 "/>
<path style="fill:#BED8E4;" d="M365.296,480.566h-216.12c-8.151,0-14.821-6.669-14.821-14.821v-7.418
	c0-8.151,6.669-14.821,14.821-14.821h216.12c8.151,0,14.821,6.669,14.821,14.821v7.418
	C380.116,473.897,373.447,480.566,365.296,480.566z"/>
<g>
	<polygon style="fill:#8D93A4;" points="184.224,386.771 329.819,386.771 319.967,351.193 192.98,352.835 	"/>
	<path style="fill:#8D93A4;" d="M503.972,273.302v83.215c0,8.151-6.669,14.821-14.821,14.821H25.319
		c-8.151,0-14.821-6.669-14.821-14.821V48.725c0-8.151,6.669-14.821,14.821-14.821h463.833c8.151,0,14.821,6.669,14.821,14.821
		v176.413V273.302z"/>
</g>
<path style="fill:#FFE4A1;" d="M277.653,221.963c-2.352,0-4.704-0.889-6.509-2.673l-69.762-68.912
	c-3.64-3.595-3.676-9.459-0.08-13.099c3.595-3.638,9.46-3.676,13.099-0.08l69.762,68.912c3.64,3.595,3.676,9.459,0.08,13.099
	C282.431,221.044,280.043,221.963,277.653,221.963z"/>
<g>
	<circle style="fill:#6BE8C7;" cx="95.593" cy="216.097" r="37.434"/>
	<circle style="fill:#6BE8C7;" cx="187.468" cy="124.222" r="26.373"/>
	<circle style="fill:#6BE8C7;" cx="296.375" cy="233.116" r="26.373"/>
</g>
<path style="fill:#BED8E4;" d="M503.972,303.791v52.727c0,8.151-6.669,14.821-14.821,14.821H25.319
	c-8.151,0-14.821-6.669-14.821-14.821v-52.727H503.972L503.972,303.791z"/>
<circle style="fill:#6BE8C7;" cx="395.821" cy="134.201" r="57.731"/>
<path style="fill:#B1C6D3;" d="M9.263,303.977V48.725c0-8.151,6.669-14.821,14.821-14.821H41.08v270.075L9.263,303.977z"/>
<path style="fill:#EBF9FE;" d="M41.08,303.979v67.534H24.083c-8.151,0-14.821-6.843-14.821-14.995v-52.54L41.08,303.979z"/>
<path style="fill:#707682;" d="M506.532,303.977V48.725c0-8.151-6.669-14.821-14.821-14.821h-16.996v270.075L506.532,303.977z"/>
<path style="fill:#B1C6D3;" d="M474.716,303.979v67.534h16.997c8.151,0,14.821-6.843,14.821-14.995v-52.54L474.716,303.979z"/>
<path d="M502.737,233.167c5.116,0,9.263-4.147,9.263-9.263V47.49c0-13.279-10.804-24.083-24.083-24.083H24.083
	C10.804,23.406,0,34.21,0,47.49v307.794c0,13.279,10.804,24.083,24.083,24.083h151.043l-18.391,53.642h-8.796
	c-13.279,0-24.083,10.804-24.083,24.083v7.418c0,13.279,10.804,24.083,24.083,24.083h216.12c13.279,0,24.083-10.804,24.083-24.083
	v-7.418c0-13.279-10.804-24.083-24.083-24.083h-8.796l-18.391-53.642h151.043c13.279,0,24.083-10.804,24.083-24.083v-83.215
	c0-5.116-4.147-9.263-9.263-9.263c-5.116,0-9.263,4.147-9.263,9.263v19.824H18.526V47.49c0-3.012,2.545-5.558,5.558-5.558h463.833
	c3.012,0,5.558,2.545,5.558,5.558v176.415C493.474,229.02,497.622,233.167,502.737,233.167z M369.617,457.093v7.418
	c0,3.012-2.545,5.558-5.558,5.558h-216.12c-3.012,0-5.558-2.545-5.558-5.558v-7.418c0-3.012,2.545-5.558,5.558-5.558h15.384
	c0.01,0,0.02,0.002,0.03,0.002c0.01,0,0.021-0.002,0.031-0.002h185.233c0.01,0,0.021,0.002,0.031,0.002
	c0.01,0,0.02-0.002,0.03-0.002h15.384C367.073,451.535,369.617,454.08,369.617,457.093z M335.679,433.009h-159.36l18.391-53.642
	h122.578L335.679,433.009z M493.474,310.417v44.866c0,3.012-2.545,5.558-5.558,5.558H24.083c-3.012,0-5.558-2.545-5.558-5.558
	v-44.866L493.474,310.417L493.474,310.417z"/>
<path d="M442.531,170.916c4.444,2.536,10.1,0.988,12.636-3.456c6.002-10.52,9.175-22.516,9.175-34.69
	c0-38.648-31.443-70.093-70.093-70.093s-70.092,31.443-70.092,70.093c0,16.209,5.545,31.138,14.819,43.025l-25.53,25.53
	c-5.355-3.221-11.619-5.077-18.311-5.077c-6.038,0-11.727,1.514-16.715,4.176l-60.983-60.24c2.823-5.102,4.436-10.965,4.436-17.197
	c0-19.65-15.986-35.636-35.636-35.636c-19.651,0-35.636,15.986-35.636,35.636c0,6.247,1.62,12.12,4.456,17.23l-35.421,35.421
	c-7.292-4.715-15.968-7.466-25.28-7.466c-25.748,0-46.697,20.948-46.697,46.696s20.948,46.696,46.697,46.696
	s46.696-20.948,46.696-46.696c0-9.751-3.009-18.81-8.14-26.308l35.016-35.016c5.355,3.221,11.619,5.077,18.311,5.077
	c6.705,0,12.982-1.864,18.344-5.097l60.296,59.56c-3.405,5.461-5.38,11.901-5.38,18.797c0,19.65,15.987,35.636,35.636,35.636
	s35.636-15.986,35.636-35.636c0-6.247-1.62-12.121-4.456-17.23l25.861-25.861c11.726,8.828,26.297,14.07,42.072,14.07
	c4.592,0,9.186-0.448,13.657-1.331c5.018-0.992,8.283-5.865,7.29-10.883c-0.992-5.019-5.868-8.28-10.883-7.29
	c-3.289,0.651-6.675,0.979-10.063,0.979c-28.433,0-51.566-23.132-51.566-51.567s23.133-51.567,51.566-51.567
	c28.433,0,51.567,23.132,51.567,51.567c0,8.96-2.331,17.781-6.74,25.51C436.54,162.723,438.087,168.381,442.531,170.916z
	 M94.355,243.04c-15.533,0-28.171-12.637-28.171-28.17s12.637-28.17,28.171-28.17s28.17,12.637,28.17,28.17
	S109.889,243.04,94.355,243.04z M169.127,122.987c0-9.435,7.676-17.11,17.11-17.11s17.11,7.676,17.11,17.11
	s-7.676,17.11-17.11,17.11C176.802,140.097,169.127,132.421,169.127,122.987z M295.135,248.994c-9.436,0-17.11-7.676-17.11-17.11
	c0-9.435,7.676-17.11,17.11-17.11s17.11,7.676,17.11,17.11C312.245,241.318,304.57,248.994,295.135,248.994z"/>
<g>
</g>
<g>
</g>
<g>
</g>
<g>
</g>
<g>
</g>
<g>
</g>
<g>
</g>
<g>
</g>
<g>
</g>
<g>
</g>
<g>
</g>
<g>
</g>
<g>
</g>
<g>
</g>
<g>
</g>
</svg>
