<?xml version="1.0" encoding="iso-8859-1"?>
<!-- Generator: Adobe Illustrator 19.0.0, SVG Export Plug-In . SVG Version: 6.00 Build 0)  -->
<svg version="1.1" id="Layer_1" xmlns="http://www.w3.org/2000/svg" xmlns:xlink="http://www.w3.org/1999/xlink" x="0px" y="0px"
	 viewBox="0 0 512 512" style="enable-background:new 0 0 512 512;" xml:space="preserve">
<path style="fill:#7C7C7C;" d="M97.961,6.02c-18.603,0-35.322,8.187-46.771,21.135L40.742,155.951l10.449,140.125h15.673V68.464
	c0-17.147,13.95-31.097,31.097-31.097s31.097,13.95,31.097,31.097v27.139h31.347V68.464C160.405,34.032,132.393,6.02,97.961,6.02z"
	/>
<rect x="104.73" y="79.935" style="fill:#4E4E4E;" width="80.008" height="31.347"/>
<path style="fill:#BDBDBD;" d="M35.517,68.464v227.612h15.673V27.155C41.448,38.172,35.517,52.635,35.517,68.464z"/>
<polygon style="fill:#00CCFF;" points="97.889,505.98 70.742,490.307 117.049,409.654 144.196,425.328 "/>
<polygon style="fill:#0096E7;" points="414.111,505.98 441.258,490.307 394.951,409.654 367.804,425.328 "/>
<path style="fill:#6BE7FF;" d="M235.102,298.117L256,449.087h114.569c64.596,0,116.961-52.365,116.961-116.961v-13.111
	L235.102,298.117z"/>
<path style="fill:#CCFFFF;" d="M24.47,319.015v13.111c0,64.596,52.365,116.961,116.961,116.961H256v-150.97L24.47,319.015z"/>
<path style="fill:#0096E7;" d="M490.082,275.178H256l-20.898,22.939L256,319.015h234.082c12.105,0,21.918-9.813,21.918-21.918l0,0
	C512,284.991,502.187,275.178,490.082,275.178z"/>
<path style="fill:#00CCFF;" d="M21.918,275.178C9.813,275.178,0,284.991,0,297.096l0,0c0,12.105,9.813,21.918,21.918,21.918H256
	v-43.837H21.918V275.178z"/>
<g>
</g>
<g>
</g>
<g>
</g>
<g>
</g>
<g>
</g>
<g>
</g>
<g>
</g>
<g>
</g>
<g>
</g>
<g>
</g>
<g>
</g>
<g>
</g>
<g>
</g>
<g>
</g>
<g>
</g>
</svg>
